PathFileType	4	(X/Y/Z)	/Users/itak/Documents/Research/Walk-IL/dataset/trc/00056_00006.trc
DataRate	CameraRate	NumFrames	NumMarkers	Units	OrigDataRate	OrigDataStartFrame	OrigNumFrames
100.000000	100.000000	4	54	mm	100.000000	63	510
Frame#	Time	RPSI			LPSI			L3			STRN			T10			C7			CLAV			RBAK			LBAK			LSHO			LUPA			LAEL			LAOL			LWTS			LWPS			LFRA			LHPS			LHTS			RSHO			RUPA			RAEL			RAOL			RWTS			RWPS			RFRA			RIFD			RHTS			RHPS			RBHD			LFHD			RFHD			LBHD			LHIP			RHIP			RASI			LASI			LKNE			LTHI			LANK			LTIP			LTOE			LMT1			LMT5			LHEE			RKNE			RTHI			RANK			RTIP			RTOE			RMT1			RMT5			RHEE			LIFD			*53			
		X1	Y1	Z1	X2	Y2	Z2	X3	Y3	Z3	X4	Y4	Z4	X5	Y5	Z5	X6	Y6	Z6	X7	Y7	Z7	X8	Y8	Z8	X9	Y9	Z9	X10	Y10	Z10	X11	Y11	Z11	X12	Y12	Z12	X13	Y13	Z13	X14	Y14	Z14	X15	Y15	Z15	X16	Y16	Z16	X17	Y17	Z17	X18	Y18	Z18	X19	Y19	Z19	X20	Y20	Z20	X21	Y21	Z21	X22	Y22	Z22	X23	Y23	Z23	X24	Y24	Z24	X25	Y25	Z25	X26	Y26	Z26	X27	Y27	Z27	X28	Y28	Z28	X29	Y29	Z29	X30	Y30	Z30	X31	Y31	Z31	X32	Y32	Z32	X33	Y33	Z33	X34	Y34	Z34	X35	Y35	Z35	X36	Y36	Z36	X37	Y37	Z37	X38	Y38	Z38	X39	Y39	Z39	X40	Y40	Z40	X41	Y41	Z41	X42	Y42	Z42	X43	Y43	Z43	X44	Y44	Z44	X45	Y45	Z45	X46	Y46	Z46	X47	Y47	Z47	X48	Y48	Z48	X49	Y49	Z49	X50	Y50	Z50	X51	Y51	Z51	X52	Y52	Z52	X53	Y53	Z53	X54	Y54	Z54	

64	0.63	918.0439453125	1026.970825195312	-196.2024688720703	888.6937866210938	1021.308532714844	-371.7053833007812	900.9700927734375	1075.922607421875	-292.2809448242188	1140.65625	1274.268188476562	-304.6914367675781	875.0693359375	1209.543212890625	-298.223388671875	930.4356689453125	1477.553955078125	-306.0377502441406	1109.140258789062	1387.786010742188	-307.0642395019531	869.8009033203125	1338.598999023438	-227.8006591796875	906.7756958007812	1437.984619140625	-407.2456359863281	1010.549987792969	1440.827026367188	-481.232421875	998.1908569335938	1311.757202148438	-556.7518310546875	1028.948852539062	1095.955444335938	-569.6953125	964.6807250976562	1080.81298828125	-485.904541015625	1126.3837890625	860.8067626953125	-499.9884643554688	1070.7470703125	847.2064208984375	-561.69873046875	1053.81884765625	988.0734252929688	-574.3179321289062	1104.648559570312	766.7037963867188	-554.2169189453125	1149.85400390625	778.1589965820312	-500.127685546875	998.4189453125	1440.35546875	-131.0420074462891	990.5936889648438	1370.864501953125	-66.67097473144531	971.2821655273438	1102.551147460938	-41.59178161621094	988.18505859375	1082.529052734375	-137.3415832519531	1119.911865234375	855.5101928710938	-81.62267303466797	1052.141967773438	838.8363037109375	-29.84225845336914	988.3131713867188	1024.165161132812	-35.392822265625	1126.872192382812	668.1337890625	-103.2210693359375	1146.693481445312	753.8445434570312	-82.10036468505859	1091.716918945312	749.6397705078125	-28.11710929870605	966.6542358398438	1659.461791992188	-367.3359680175781	1140.7568359375	1682.91162109375	-241.0414428710938	1143.31689453125	1687.3994140625	-366.7688598632812	973.2254638671875	1646.590576171875	-230.3856048583984	986.1494140625	952.88427734375	-465.293701171875	978.5130004882812	954.6063232421875	-124.4554824829102	1100.364501953125	968.1276245117188	-153.7402648925781	1099.168212890625	960.15625	-422.279296875	1029.576293945312	487.8923950195312	-431.79833984375	1006.797729492188	630.3407592773438	-464.3095092773438	923.1377563476562	39.72822952270508	-456.0137634277344	966.8154907226562	255.6370697021484	-458.2195739746094	1128.77734375	31.93533134460449	-465.0391540527344	1083.690551757812	31.77585411071777	-407.4044189453125	1022.592468261719	30.11583709716797	-501.9278869628906	877.2817993164062	35.520751953125	-376.8508911132812	1027.195068359375	506.5660705566406	-139.5404052734375	1050.169067382812	777.611083984375	-113.3549194335938	944.3823852539062	35.45046234130859	-132.3977966308594	1002.502075195312	389.1268920898438	-130.1126098632812	1160.700073242188	28.64189910888672	-170.4024963378906	1098.261962890625	33.00870895385742	-210.5328369140625	1069.273559570312	36.69294738769531	-116.8589935302734	895.549560546875	35.61151123046875	-188.0493011474609	1147.52099609375	674.5850219726562	-479.7984008789062	nan	nan	nan	
65	0.64	918.0717163085938	1026.981201171875	-196.2445220947266	888.7669677734375	1021.310852050781	-371.7517700195312	900.985595703125	1075.919799804688	-292.3164978027344	1140.6943359375	1274.226928710938	-304.6881713867188	875.1546630859375	1209.546142578125	-298.2692260742188	930.476806640625	1477.53125	-306.0802917480469	1109.19189453125	1387.765625	-307.076171875	869.8782348632812	1338.595458984375	-227.8374328613281	906.8350219726562	1437.950561523438	-407.2975158691406	1010.613830566406	1440.79638671875	-481.2703552246094	998.2705688476562	1311.735961914062	-556.8015747070312	1029.058837890625	1095.980224609375	-569.7828369140625	964.856201171875	1080.80859375	-486.0036010742188	1126.45458984375	860.7232055664062	-500.2802734375	1070.77685546875	847.2223510742188	-561.9798583984375	1053.906860351562	988.103515625	-574.505126953125	1104.660888671875	766.6752319335938	-554.5364990234375	1149.896362304688	778.1384887695312	-500.4761962890625	998.453857421875	1440.355346679688	-131.0912628173828	990.6181640625	1370.890380859375	-66.71721649169922	971.3192749023438	1102.571533203125	-41.59601593017578	988.21044921875	1082.539184570312	-137.338134765625	1119.98095703125	855.5428466796875	-81.56517791748047	1052.179443359375	838.8633422851562	-29.80624580383301	988.3948364257812	1024.183471679688	-35.35741806030273	1127.011596679688	668.1783447265625	-103.2063293457031	1146.750732421875	753.8646850585938	-82.03525543212891	1091.614868164062	749.6380615234375	-28.16945648193359	966.6578369140625	1659.413696289062	-367.4212646484375	1140.73193359375	1682.97509765625	-241.1762390136719	1143.256713867188	1687.444458007812	-366.8780517578125	973.2207641601562	1646.564208984375	-230.4896240234375	986.2567138671875	952.8739013671875	-465.321533203125	978.5313110351562	954.607421875	-124.4743576049805	1100.451416015625	968.185302734375	-153.8314514160156	1099.115844726562	960.0170288085938	-422.1876831054688	1029.583251953125	487.9129943847656	-431.8156127929688	1006.812133789062	630.3333129882812	-464.3384704589844	923.1463012695312	39.71841812133789	-456.0174255371094	966.8092041015625	255.6307373046875	-458.2326049804688	1128.776489257812	31.93726348876953	-465.0374450683594	1083.692138671875	31.77826309204102	-407.4044494628906	1022.592468261719	30.11699295043945	-501.9277648925781	877.2803344726562	35.52792739868164	-376.8567810058594	1027.209838867188	506.5617065429688	-139.5598907470703	1050.18603515625	777.6148071289062	-113.3705749511719	944.3805541992188	35.45566177368164	-132.4096374511719	1002.494384765625	389.0981750488281	-130.1385345458984	1160.70166015625	28.64081001281738	-170.40283203125	1098.263427734375	33.00608825683594	-210.5309600830078	1069.274780273438	36.6894645690918	-116.8572158813477	895.551513671875	35.6182975769043	-188.0538635253906	1147.452880859375	674.40673828125	-480.1289672851562	nan	nan	nan	
66	0.65	918.1113891601562	1026.99462890625	-196.2826385498047	888.8238525390625	1021.311889648438	-371.7966003417969	900.9999389648438	1075.919311523438	-292.3517150878906	1140.729858398438	1274.180419921875	-304.6907348632812	875.2344360351562	1209.5498046875	-298.3096008300781	930.5224609375	1477.51416015625	-306.126220703125	1109.242065429688	1387.743286132812	-307.0904235839844	869.9461059570312	1338.593383789062	-227.8715209960938	906.8919677734375	1437.919067382812	-407.3446655273438	1010.674133300781	1440.766967773438	-481.3066711425781	998.3401489257812	1311.716064453125	-556.8472900390625	1029.162719726562	1096.011108398438	-569.8694458007812	965.0371704101562	1080.799926757812	-486.1077575683594	1126.5185546875	860.6416015625	-500.5529174804688	1070.814453125	847.2333374023438	-562.2454833984375	1053.992919921875	988.1202392578125	-574.688232421875	1104.672485351562	766.6390991210938	-554.8402099609375	1149.94189453125	778.1192626953125	-500.8143615722656	998.4923706054688	1440.353393554688	-131.1410827636719	990.6485595703125	1370.914794921875	-66.76388549804688	971.3602294921875	1102.591064453125	-41.59584045410156	988.23828125	1082.546264648438	-137.3340911865234	1120.050415039062	855.5731201171875	-81.50830841064453	1052.217407226562	838.8881225585938	-29.77056121826172	988.4794921875	1024.2001953125	-35.31719207763672	1127.163696289062	668.2191772460938	-103.1887588500977	1146.808715820312	753.8846435546875	-81.97219085693359	1091.519165039062	749.6348266601562	-28.22060585021973	966.6632080078125	1659.364135742188	-367.5095825195312	1140.706665039062	1683.044799804688	-241.3147277832031	1143.199951171875	1687.497436523438	-366.9987487792969	973.2217407226562	1646.53173828125	-230.5883636474609	986.3587646484375	952.8629150390625	-465.3490295410156	978.5458984375	954.6129760742188	-124.4889678955078	1100.5517578125	968.2603759765625	-153.9384918212891	1099.0771484375	959.9008178710938	-422.1199645996094	1029.59326171875	487.9367980957031	-431.8364868164062	1006.831909179688	630.3262329101562	-464.3668518066406	923.1549072265625	39.71197891235352	-456.0209655761719	966.8060302734375	255.6251068115234	-458.24560546875	1128.777587890625	31.93958282470703	-465.0328674316406	1083.693969726562	31.78060150146484	-407.4038391113281	1022.592346191406	30.1185131072998	-501.9268798828125	877.279541015625	35.53623199462891	-376.862548828125	1027.228759765625	506.5599670410156	-139.5821685791016	1050.203735351562	777.61474609375	-113.3860092163086	944.3775634765625	35.46157836914062	-132.4232788085938	1002.494079589844	389.0721130371094	-130.1658935546875	1160.703491210938	28.63912773132324	-170.4038391113281	1098.266357421875	33.00302886962891	-210.5308837890625	1069.2763671875	36.68837356567383	-116.8558349609375	895.5530395507812	35.62540817260742	-188.060546875	1147.376098632812	674.246337890625	-480.4642028808594	nan	nan	nan	
67	0.66	918.1581420898438	1027.010131835938	-196.3175964355469	888.8685913085938	1021.312316894531	-371.8404541015625	901.016845703125	1075.920166015625	-292.3863830566406	1140.763793945312	1274.130493164062	-304.6998901367188	875.30810546875	1209.554321289062	-298.3453369140625	930.5736694335938	1477.504028320312	-306.1765747070312	1109.29150390625	1387.720947265625	-307.1078796386719	870.0054321289062	1338.593017578125	-227.9028778076172	906.947021484375	1437.890869140625	-407.3878479003906	1010.731140136719	1440.739868164062	-481.3419799804688	998.4010620117188	1311.6982421875	-556.8899536132812	1029.260620117188	1096.04833984375	-569.9575805664062	965.2220458984375	1080.787719726562	-486.2168273925781	1126.575927734375	860.56689453125	-500.8032531738281	1070.862670898438	847.24169921875	-562.491455078125	1054.076171875	988.1251831054688	-574.8646240234375	1104.688232421875	766.602294921875	-555.1314697265625	1149.991455078125	778.0923461914062	-501.1358642578125	998.5346069335938	1440.35107421875	-131.1920166015625	990.68408203125	1370.937866210938	-66.81166839599609	971.4049682617188	1102.610229492188	-41.59173583984375	988.2667236328125	1082.551147460938	-137.3291931152344	1120.119506835938	855.6015625	-81.45208740234375	1052.256225585938	838.9111938476562	-29.73512649536133	988.5612182617188	1024.215942382812	-35.27606582641602	1127.326904296875	668.2576293945312	-103.1651229858398	1146.869873046875	753.9066772460938	-81.91025543212891	1091.439819335938	749.6328125	-28.26302146911621	966.6707153320312	1659.315185546875	-367.5998229980469	1140.68310546875	1683.11962890625	-241.4547576904297	1143.148559570312	1687.555786132812	-367.1283874511719	973.226806640625	1646.495361328125	-230.6812133789062	986.4505004882812	952.8533935546875	-465.3787841796875	978.5573120117188	954.6226806640625	-124.4996948242188	1100.659423828125	968.3436889648438	-154.0543365478516	1099.05419921875	959.8096313476562	-422.0780639648438	1029.6064453125	487.9649658203125	-431.8614501953125	1006.85546875	630.318603515625	-464.3938598632812	923.161865234375	39.71035766601562	-456.0237121582031	966.80517578125	255.6198120117188	-458.2572326660156	1128.780517578125	31.94182777404785	-465.0257568359375	1083.6953125	31.7821102142334	-407.4027404785156	1022.591674804688	30.11997222900391	-501.9256896972656	877.279296875	35.54464340209961	-376.8663940429688	1027.251708984375	506.560791015625	-139.6086120605469	1050.221801757812	777.6112060546875	-113.4009552001953	944.3729858398438	35.4681510925293	-132.4373931884766	1002.503051757812	389.0508728027344	-130.1935424804688	1160.705322265625	28.63646697998047	-170.4054565429688	1098.270141601562	32.99960327148438	-210.532470703125	1069.279418945312	36.69062805175781	-116.8547515869141	895.5541381835938	35.6327018737793	-188.0694122314453	1147.305786132812	674.1194458007812	-480.8100891113281	nan	nan	nan	
